<svg id="Capa_1" enable-background="new 0 0 512 512" height="512" viewBox="0 0 512 512" width="512" xmlns="http://www.w3.org/2000/svg"><g><g><g><g><g><circle cx="256" cy="256" fill="#696e73" r="256"/></g></g></g></g><path d="m394.536 94.423-37.363 30.801-192.378 240.983-85.11-85.11-5.625 15.627-17.131 4.121 71.614 71.614-10.092.919-49.14-49.106-9.033 9.033 178.069 178.069c5.834.399 11.716.626 17.653.626 141.385 0 256-114.615 256-256 0-16.672-1.597-32.971-4.642-48.754z" fill="#4b5055"/><path d="m422.268 263.275 21.606 28.026-31.062 6.074z" fill="#00baa0"/><circle cx="223.802" cy="419.742" fill="#ff415b" r="7.536"/><circle cx="460.437" cy="257.711" fill="#00baa0" r="7.536"/><path d="m56.928 300.845 22.756-19.748 6.696 26.104z" fill="#00ddc1"/><path d="m467.974 227.321-27.018 22.852-7.475-30.755z" fill="#00baa0"/><circle cx="65.179" cy="329.173" fill="#00ddc1" r="6.417"/><circle cx="409.953" cy="217.873" fill="#00baa0" r="7.536"/><g><g><path d="m256.032 448.777-141.67-87.59 2.947-266.763h138.723l26.339 202.575z" fill="#ff415b"/><path d="m391.589 361.023-135.776 87.754v-354.353h138.723z" fill="#f9163d"/></g></g><g><g><g><path d="m261.884 369.207h-6.086l-2.823-36.83 2.823-39.26h32.242v11.556h-26.156z" fill="#ffd944"/></g><g><path d="m250.327 324.772h35.635v11.556h-35.635z" fill="#ffd944"/></g></g></g><g><g><g><path d="m321.967 369.207h-11.556v-76.09h37.711v11.556h-26.155z" fill="#ffd944"/></g><g><path d="m310.411 324.772h35.634v11.556h-35.634z" fill="#ffd944"/></g></g></g><g><path d="m193.056 369.445c-21.109 0-38.283-17.174-38.283-38.283s17.174-38.283 38.283-38.283c21.11 0 38.284 17.174 38.284 38.283s-17.174 38.283-38.284 38.283zm0-65.01c-14.737 0-26.726 11.989-26.726 26.726s11.989 26.726 26.726 26.726c14.738 0 26.727-11.989 26.727-26.726 0-14.736-11.989-26.726-26.727-26.726z" fill="#ffe377"/></g><path d="m250.327 293.117h5.471v76.09h-5.471z" fill="#ffe377"/><g><g><path d="m255.813 427.044-141.1-65.857-.264 26.277 141.364 66.021 12.027-16.039z" fill="#f9163d"/><path d="m394.183 94.423-2.594 266.6-135.776 66.021v26.441l135.864-66.021 2.859-293.041z" fill="#c8001c"/></g></g><g><g><g><path d="m251.775 272.263-81.367-.249.052-14.964 2.097-2.202c.128-.134 13.9-14.805 45.495-59.949 6.507-9.297 10.7-17.717 12.469-25.035l.522-4.085c-.245-13.808-11.552-24.966-25.417-24.966-12.122 0-22.612 8.615-24.943 20.485l-1.472 7.495-14.99-2.944 1.472-7.495c3.736-19.016 20.53-32.818 39.934-32.818 22.441 0 41.892 18.288 40.697 40.697-.09 1.691-.541 5.055-.837 6.723-1.672 9.415-7.179 19.645-14.92 30.702-19.511 27.879-32.319 44.325-39.561 53.143l60.816.185z" fill="#ffe377"/></g></g><path d="m338.769 192.628c-8.997-9.474-21.14-14.693-34.193-14.693-.605 0-1.179.01-1.759.019-6.277.094-11.128.686-15.447 1.749l6.404-38.651h49.703v-15.276h-62.657l-13.137 79.389 13.499-6.92c.081-.042.541-.272 1.312-.619 5.434-2.447 10.164-4.215 20.324-4.396.572-.01 1.152-.018 1.759-.018 8.822 0 17.031 3.528 23.115 9.936 6.08 6.405 9.176 14.803 8.717 23.647-.862 16.579-14.553 29.829-31.171 30.164-.218.005-.434.007-.651.007-.596 0-1.18-.048-1.769-.081-15.089-.834-27.695-12.192-29.809-27.344-.205-1.458-.308-2.956-.308-4.452v-7.638h-15.276v7.638c0 2.203.153 4.413.455 6.566 3.169 22.709 22.243 39.705 44.939 40.546.587.022 1.174.04 1.765.04.32 0 .643-.004.963-.01 24.585-.496 44.843-20.106 46.119-44.646.677-13.07-3.903-25.484-12.897-34.957z" fill="#ffd944"/></g></g></svg>