<svg id="Capa_1" enable-background="new 0 0 512 512" height="512" viewBox="0 0 512 512" width="512" xmlns="http://www.w3.org/2000/svg"><g><g><g><g><g><circle cx="256" cy="256" fill="#00ddc1" r="256"/></g></g></g></g><path d="m394.536 94.423-37.363 30.801-192.378 240.983-85.11-85.11-5.625 15.627-17.131 4.121 71.614 71.614-10.092.919-49.14-49.106-9.033 9.033 178.069 178.069c5.834.399 11.716.626 17.653.626 141.385 0 256-114.615 256-256 0-16.672-1.597-32.971-4.642-48.754z" fill="#00baa0"/><path d="m422.268 263.275 21.606 28.026-31.062 6.074z" fill="#f9163d"/><circle cx="223.802" cy="419.742" fill="#ff415b" r="7.536"/><circle cx="460.437" cy="257.711" fill="#f9163d" r="7.536"/><path d="m56.928 300.845 22.756-19.748 6.696 26.104z" fill="#ff415b"/><path d="m467.974 227.321-27.018 22.852-7.475-30.755z" fill="#f9163d"/><circle cx="65.179" cy="329.173" fill="#ff415b" r="6.417"/><circle cx="409.953" cy="217.873" fill="#f9163d" r="7.536"/><g><g><g><path d="m256.032 448.777-141.67-87.59 2.947-266.763h138.504l26.558 202.575z" fill="#514899"/><path d="m391.589 361.023-135.776 87.754v-354.353h138.723z" fill="#39326c"/></g></g><g><g><path d="m201.185 271.731c-22.759.001-42.141-16.768-45.294-39.362-.293-2.091-.441-4.234-.441-6.368v-7.431h14.862v7.431c0 1.447.1 2.897.299 4.311 2.158 15.452 15.632 26.878 31.209 26.55 16.093-.324 29.352-13.154 30.184-29.209.445-8.566-2.552-16.697-8.44-22.898-5.891-6.205-13.84-9.623-22.384-9.623-11.04 0-15.831 1.772-21.393 4.277-.751.337-1.201.564-1.277.602l-13.123 6.709 12.744-77.004h60.78v14.862h-48.177l-6.196 37.396c4.567-1.12 9.724-1.704 16.642-1.704 12.66 0 24.437 5.062 33.163 14.251 8.722 9.187 13.162 21.226 12.504 33.902-1.234 23.798-20.88 42.817-44.726 43.298-.312.007-.626.01-.936.01z" fill="#ffe377"/></g></g><path d="m311.481 126.303c-24.064 0-43.641 19.578-43.641 43.643v57.91c0 24.064 19.578 43.641 43.641 43.641 24.064 0 43.642-19.578 43.642-43.641v-57.91c0-24.065-19.578-43.643-43.642-43.643zm28.78 101.552c0 15.869-12.91 28.779-28.78 28.779-15.869 0-28.779-12.91-28.779-28.779v-57.91c0-15.87 12.91-28.781 28.779-28.781 15.87 0 28.78 12.911 28.78 28.781z" fill="#ffd944"/><g><g><g><path d="m261.884 369.207h-6.086l-2.823-36.83 2.823-39.26h32.242v11.556h-26.156z" fill="#ffd944"/></g><g><path d="m250.327 324.772h35.635v11.556h-35.635z" fill="#ffd944"/></g></g></g><g><g><g><path d="m321.967 369.207h-11.556v-76.09h37.711v11.556h-26.155z" fill="#ffd944"/></g><g><path d="m310.411 324.772h35.634v11.556h-35.634z" fill="#ffd944"/></g></g></g><g><path d="m193.056 369.445c-21.109 0-38.283-17.174-38.283-38.283s17.174-38.283 38.283-38.283c21.11 0 38.284 17.174 38.284 38.283s-17.174 38.283-38.284 38.283zm0-65.01c-14.737 0-26.726 11.989-26.726 26.726s11.989 26.726 26.726 26.726c14.738 0 26.727-11.989 26.727-26.726 0-14.736-11.989-26.726-26.727-26.726z" fill="#ffe377"/></g><path d="m250.327 293.117h5.471v76.09h-5.471z" fill="#ffe377"/></g><g><g><path d="m255.813 427.044-141.1-65.857-.264 26.277 141.364 66.021 12.027-16.039z" fill="#8078be"/><path d="m394.183 94.423-2.594 266.6-135.776 66.021v26.441l135.864-66.021 2.859-293.041z" fill="#514899"/></g></g></g></svg>