<?xml version="1.0" encoding="iso-8859-1"?>
<!-- Generator: Adobe Illustrator 19.0.0, SVG Export Plug-In . SVG Version: 6.00 Build 0)  -->
<svg version="1.1" id="Capa_1" xmlns="http://www.w3.org/2000/svg" xmlns:xlink="http://www.w3.org/1999/xlink" x="0px" y="0px"
	 viewBox="0 0 512 512" style="enable-background:new 0 0 512 512;" xml:space="preserve">
<path style="fill:#3C3A41;" d="M435.894,512h-59.965c-8.286,0-14.991-6.705-14.991-14.991v-61.964
	c0-8.286,6.705-14.991,14.991-14.991h59.965c8.286,0,14.991,6.705,14.991,14.991v61.964C450.885,505.295,444.18,512,435.894,512z"/>
<g>
	<path style="fill:#57555C;" d="M136.07,512H76.106c-8.286,0-14.991-6.705-14.991-14.991v-61.964
		c0-8.286,6.705-14.991,14.991-14.991h59.965c8.286,0,14.991,6.705,14.991,14.991v61.964C151.062,505.295,144.357,512,136.07,512z"
		/>
	<path style="fill:#57555C;" d="M151.062,330.107v29.982c0,16.49-13.492,29.982-29.982,29.982H61.114
		c-16.49,0-29.982-13.492-29.982-29.982v-29.982l29.982-29.982h59.965L151.062,330.107z"/>
</g>
<path style="fill:#3C3A41;" d="M121.079,300.124l29.982,29.982v29.982c0,16.49-13.492,29.982-29.982,29.982H91.097v-89.947H121.079z
	"/>
<path style="fill:#17ACE8;" d="M151.062,30.283v29.982l-29.982,29.982H61.114L31.132,60.265V30.283
	c0-16.49,13.492-29.982,29.982-29.982h59.965C137.569,0.301,151.062,13.794,151.062,30.283z"/>
<path style="fill:#1689FC;" d="M151.062,30.283v29.982l-29.982,29.982H91.097V0.301h29.982
	C137.569,0.301,151.062,13.794,151.062,30.283z"/>
<polygon style="fill:#CAE8F9;" points="151.062,60.265 151.062,150.212 121.079,180.195 61.114,180.195 31.132,150.212 
	31.132,60.265 "/>
<polygon style="fill:#B7E0F6;" points="151.062,60.265 151.062,150.212 121.079,180.195 91.097,180.195 91.097,60.265 "/>
<rect x="31.131" y="150.211" style="fill:#17ACE8;" width="119.929" height="179.894"/>
<rect x="91.096" y="150.211" style="fill:#1689FC;" width="59.965" height="179.894"/>
<path style="fill:#CAE8F9;" d="M106.088,225.168v29.982c0,8.396-6.595,14.991-14.991,14.991s-14.991-6.595-14.991-14.991v-29.982
	c0-8.396,6.595-14.991,14.991-14.991S106.088,216.773,106.088,225.168z"/>
<path style="fill:#B7E0F6;" d="M91.097,270.142v-59.965c8.396,0,14.991,6.595,14.991,14.991v29.982
	C106.088,263.547,99.493,270.142,91.097,270.142z"/>
<path style="fill:#57555C;" d="M270.991,330.107v29.982c0,16.49-13.492,29.982-29.982,29.982h-59.965
	c-16.49,0-29.982-13.492-29.982-29.982v-29.982l29.982-29.982h59.965L270.991,330.107z"/>
<path style="fill:#3C3A41;" d="M241.009,300.124l29.982,29.982v29.982c0,16.49-13.492,29.982-29.982,29.982h-29.982v-89.947H241.009
	z"/>
<path style="fill:#FD3C65;" d="M270.991,30.283v29.982l-29.982,29.982h-59.965l-29.982-29.982V30.283
	c0-16.49,13.492-29.982,29.982-29.982h59.965C257.498,0.301,270.991,13.794,270.991,30.283z"/>
<path style="fill:#FD003A;" d="M270.991,30.283v29.982l-29.982,29.982h-29.982V0.301h29.982
	C257.498,0.301,270.991,13.794,270.991,30.283z"/>
<polygon style="fill:#CAE8F9;" points="270.991,60.265 270.991,150.212 241.009,180.195 181.044,180.195 151.062,150.212 
	151.062,60.265 "/>
<polygon style="fill:#B7E0F6;" points="270.991,60.265 270.991,150.212 241.009,180.195 211.026,180.195 211.026,60.265 "/>
<rect x="151.061" y="150.211" style="fill:#FD3C65;" width="119.929" height="179.894"/>
<rect x="211.025" y="150.211" style="fill:#FD003A;" width="59.965" height="179.894"/>
<path style="fill:#CAE8F9;" d="M226.018,225.168v29.982c0,8.396-6.595,14.991-14.991,14.991c-8.396,0-14.991-6.595-14.991-14.991
	v-29.982c0-8.396,6.595-14.991,14.991-14.991C219.422,210.177,226.018,216.773,226.018,225.168z"/>
<path style="fill:#B7E0F6;" d="M211.026,270.142v-59.965c8.396,0,14.991,6.595,14.991,14.991v29.982
	C226.018,263.547,219.422,270.142,211.026,270.142z"/>
<path style="fill:#57555C;" d="M488.034,301.462l10.255,28.174c5.64,15.496-2.425,32.789-17.919,38.428l-56.349,20.509
	c-15.496,5.64-32.789-2.425-38.428-17.919l-10.255-28.174l17.919-38.428l56.349-20.509L488.034,301.462z"/>
<path style="fill:#3C3A41;" d="M449.604,283.542l38.428,17.919l10.255,28.174c5.64,15.496-2.425,32.789-17.919,38.428
	l-28.174,10.255l-30.764-84.522L449.604,283.542z"/>
<path style="fill:#32D736;" d="M385.488,19.719l10.255,28.174l-17.919,38.428l-56.349,20.509l-38.428-17.919l-10.255-28.174
	c-5.64-15.496,2.425-32.789,17.919-38.428L347.059,1.8C362.554-3.84,379.847,4.223,385.488,19.719z"/>
<path style="fill:#10BB67;" d="M385.488,19.719l10.255,28.174l-17.919,38.428l-28.174,10.255l-30.764-84.522L347.059,1.8
	C362.554-3.84,379.847,4.223,385.488,19.719z"/>
<polygon style="fill:#CAE8F9;" points="395.742,47.894 426.506,132.416 408.586,170.844 352.237,191.354 313.809,173.435 
	283.045,88.912 "/>
<polygon style="fill:#B7E0F6;" points="395.742,47.894 426.506,132.416 408.586,170.844 380.412,181.099 339.394,68.403 "/>
<rect x="310.983" y="177.48" transform="matrix(0.342 0.9397 -0.9397 0.342 486.9386 -220.5158)" style="fill:#32D736;" width="179.894" height="119.929"/>
<rect x="399.108" y="137.235" transform="matrix(0.9397 -0.342 0.342 0.9397 -51.8221 160.4479)" style="fill:#10BB67;" width="59.965" height="179.894"/>
<path style="fill:#CAE8F9;" d="M409.88,218.233l10.255,28.174c2.871,7.889-1.07,16.342-8.96,19.215
	c-7.889,2.871-16.342-1.07-19.215-8.96l-10.255-28.174c-2.871-7.889,1.07-16.342,8.96-19.215
	C398.556,206.402,407.009,210.344,409.88,218.233z"/>
<path style="fill:#B7E0F6;" d="M411.176,265.622l-20.509-56.349c7.889-2.871,16.342,1.07,19.215,8.96l10.255,28.174
	C423.007,254.297,419.065,262.75,411.176,265.622z"/>
<path style="fill:#A24F3D;" d="M511.849,420.054c0,16.49-13.492,29.982-29.982,29.982H30.133c-16.49,0-29.982-13.492-29.982-29.982
	s13.492-29.982,29.982-29.982h451.734C498.356,390.071,511.849,403.565,511.849,420.054z"/>
<path style="fill:#8B432D;" d="M511.849,420.054c0,16.49-13.492,29.982-29.982,29.982H256v-59.965h225.867
	C498.356,390.071,511.849,403.565,511.849,420.054z"/>
<g>
</g>
<g>
</g>
<g>
</g>
<g>
</g>
<g>
</g>
<g>
</g>
<g>
</g>
<g>
</g>
<g>
</g>
<g>
</g>
<g>
</g>
<g>
</g>
<g>
</g>
<g>
</g>
<g>
</g>
</svg>
