<svg id="Layer_1" enable-background="new 0 0 256 256" height="512" viewBox="0 0 256 256" width="512" xmlns="http://www.w3.org/2000/svg"><g id="Layer_17"><g><path d="m93 137.2c-.1.1-.2.1-.4.2-1.5.9-3.4.7-4.7-.3l-11.1-8.9c-1.1.8-2.3 1.4-3.6 1.6l5.2 13.1c2.9 7.3 13.4 6.9 15.7-.6.6-2.1 1-4.3 1.1-6.5-.8.4-1.5.9-2.2 1.4z" fill="#ef4460"/><path d="m49.6 142.2c-.6-2.1-1-4.3-1.1-6.5-7.7-6.4-8.8-17.8-2.4-25.6 1.3-1.6 2.9-3 4.7-4 .1 0 .1-.1.2-.1 1.5-.9 3.4-.8 4.7.3l6.6 5.3v-49.3h-49.1c-5.9 0-10.7 4.7-10.7 10.6v110.1c0 5.9 4.8 10.6 10.7 10.7h49.2v-47.2c-3.7 2.7-8.9 1.8-11.6-2-.6-.7-1-1.5-1.2-2.3z" fill="#f5c84c"/><path d="m242.8 62.3h-161.5v49.3l6.6-5.2c1.4-1.1 3.2-1.2 4.7-.3.1.1.2.1.4.2 8.6 5.2 11.3 16.3 6.1 24.9-1.1 1.7-2.4 3.3-4 4.6-.1 2.2-.4 4.4-1.1 6.5-1.3 4.4-6 6.9-10.4 5.5-.8-.3-1.6-.7-2.4-1.2v47.2h161.5c5.9 0 10.6-4.8 10.7-10.7v-110.2c.1-5.9-4.7-10.6-10.6-10.6z" fill="#edf4fc"/><path d="m66.8 115.2c2.9-2.3 7-2.3 9.9 0l4.6-3.6v-49.3h-19v49.3z" fill="#ef4460"/><path d="m78.4 142.8-5.2-13.1c-.9.2-1.8.2-2.7 0l-5.2 13.1c-.6 1.5-1.6 2.8-2.9 3.7v47.2h19v-47.2c-1.4-.9-2.4-2.2-3-3.7z" fill="#ef4460"/><path d="m240.3 62.3-5.3-20c-1.5-5.7-7.4-9-13.1-7.5l-102.6 27.5z" fill="#dae6f1"/><path d="m77.8 193.7 3.9 14.8 18.4-5-2.6-9.8z" fill="#fc657e"/><g fill="#fcdd86"><path d="m60.7 193.7-58.2-58.2v26.9l31.3 31.3z"/><path d="m34.2 62.3h-21c-1.6 0-3.2.4-4.7 1.1l42.5 42.5c1.5-.9 3.3-.7 4.7.4l6.6 5.3v-21.3z"/><path d="m2.5 109.9 59.8 59.8v-23.2c-3.7 2.7-8.9 1.8-11.6-2-.5-.7-.9-1.5-1.2-2.4-.6-2.1-1-4.3-1.1-6.5-4-3.3-6.4-8.1-6.6-13.2l-39.3-39.4z"/></g><circle cx="71.8" cy="121.7" fill="#f98fa6" r="8.2"/><path d="m93 106.2c-.1-.1-.2-.1-.4-.2-1.5-.9-3.4-.7-4.7.3l-11.1 8.9c3.6 2.7 4.3 7.8 1.5 11.4-.4.6-1 1.1-1.5 1.5l11.1 8.9c1.4 1.1 3.2 1.2 4.7.3.1-.1.2-.1.4-.2 8.6-5.2 11.3-16.3 6.1-24.9-1.5-2.4-3.6-4.5-6.1-6z" fill="#fc657e"/><path d="m63.6 121.7c0-2.5 1.2-4.9 3.2-6.5l-11.1-8.9c-1.4-1.1-3.2-1.2-4.7-.3-.1 0-.1.1-.2.1-8.6 5.1-11.5 16.3-6.3 24.9 1.5 2.6 3.7 4.8 6.3 6.3.1 0 .1.1.2.1 1.5.9 3.4.7 4.7-.3l11.1-8.9c-2-1.6-3.2-4-3.2-6.5z" fill="#fc657e"/><path d="m66.8 128.2-11.1 8.8c-1.4 1.1-3.2 1.2-4.7.3-.1 0-.1-.1-.2-.1-.8-.5-1.6-1-2.3-1.6.1 2.2.4 4.4 1.1 6.5 2.3 7.5 12.8 7.9 15.7.6l5.2-13.1c-1.3-.1-2.6-.6-3.7-1.4z" fill="#ef4460"/><path d="m136.7 193.7h-39.2l2.6 9.8z" fill="#dae6f1"/><path d="m77.8 193.7h-62.1l5.3 19.9c1.5 5.7 7.4 9 13.1 7.5l47.7-12.8z" fill="#29589f"/><path d="m55.6 215.5 25.9-7-25.7-14.8h-38.1z" fill="#5290db"/><path d="m86.2 36h-2.1v-2.1c0-1.5-1.3-2.8-2.8-2.8s-2.8 1.3-2.8 2.8v2.1h-2.1c-1.5 0-2.8 1.3-2.8 2.8s1.3 2.8 2.8 2.8h2.1v2.1c0 1.5 1.3 2.8 2.8 2.8s2.8-1.3 2.8-2.8v-2.1h2.1c1.5 0 2.8-1.3 2.8-2.8s-1.3-2.8-2.8-2.8z" fill="#fc657e"/><path d="m180.3 211c-4-.7-7.1-3.8-7.9-7.7 0-.1-.1-.2-.2-.1-.1 0-.1.1-.1.1-.8 4-3.9 7-7.9 7.7-.1 0-.2.1-.1.2 0 .1.1.1.1.1 4 .7 7.1 3.8 7.9 7.7 0 .1.1.2.2.1.1 0 .1-.1.1-.1.8-4 3.9-7 7.9-7.7.1 0 .2-.1.1-.2 0 0 0-.1-.1-.1z" fill="#f5c84c"/><circle cx="202" cy="220" fill="#87d147" r="3"/><circle cx="108" cy="46" fill="#70d6f9" r="3"/><circle cx="16" cy="48" fill="#f5c84c" r="3"/><path d="m129.3 121.8c-2.6-.1-5.2.7-7.4 2.2-.2.2-.5.1-.7-.1-.1-.1-.1-.2-.1-.3v-8.3c0-.3.2-.5.5-.5h16.9c.3 0 .5-.2.5-.5v-4c0-.3-.2-.5-.5-.5h-22.1c-.3 0-.5.2-.5.5v19.8c0 .3.2.5.5.5h4.4c.2 0 .4-.1.4-.3 1.4-2.5 4.1-4 7-3.8 4.5 0 7.1 2.6 7.1 7.2 0 4.9-2.6 7.8-7.2 7.8-3.9 0-6.5-2.2-7.1-6.1 0-.2-.3-.4-.5-.4h-4.5c-.3 0-.5.2-.5.5.5 6.7 5.6 11 12.8 11 7.6 0 12.4-4.9 12.4-12.7.1-7.4-4.3-12-11.4-12z"/><path d="m145.1 128c0 12.5 4.1 18.3 12.9 18.3s12.9-5.8 12.9-18.3c0-12.3-4.2-18.2-12.9-18.2-8.8-.1-12.9 5.7-12.9 18.2zm20.3 0c0 6.3-.6 13.1-7.5 13.1s-7.4-6.8-7.4-13.1.6-12.9 7.4-12.9c7-.1 7.5 6.6 7.5 12.9z"/><path d="m175.5 128c0 12.5 4.1 18.3 12.9 18.3s12.9-5.8 12.9-18.3c0-12.3-4.2-18.2-12.9-18.2-8.8-.1-12.9 5.7-12.9 18.2zm20.4 0c0 6.3-.6 13.1-7.5 13.1s-7.4-6.8-7.4-13.1.6-12.9 7.4-12.9c6.9-.1 7.5 6.3 7.5 12.9z"/><path d="m230.7 136.6c.2-3.8-2.1-7.4-5.6-8.8-1.6-.7-3.2-1.3-4.9-1.8v-11.2c2 .7 3.5 2.4 3.9 4.5 0 .2.3.4.5.4h4.9c.3 0 .5-.2.5-.5 0 0 0 0 0-.1-.7-4.8-4.4-8.3-9.7-9.1v-3.8c0-.3-.3-.6-.6-.6h-2.8c-.3 0-.6.3-.6.6v3.7c-6.4.4-10.5 4.2-10.5 9.6 0 6.6 4.5 8.6 10.5 10.4v11.7c-2.4-.8-4.2-2.9-4.5-5.4 0-.3-.2-.5-.5-.5h-4.8c-.3 0-.5.2-.5.5.5 5.2 4.5 9 10.3 10v3.6c0 .3.3.6.6.6h2.8c.3 0 .6-.3.6-.6v-3.4c7.1-.4 10.4-5.2 10.4-9.8zm-14.6-12c-1.1-.4-2.2-1.1-3.2-1.8-1-.9-1.5-2.2-1.4-3.5 0-2.8 1.7-4.5 4.6-4.9v10.2c.1 0 .1 0 0 0zm4.1 17.3v-10.7c2.9 1.2 4.7 2.5 4.7 5.5.1 2.7-2 5-4.7 5.2z"/><path d="m242.8 59.8h-.6l-4.8-18.1c-1.9-7-9.1-11.2-16.1-9.3l-102.3 27.4h-105.8c-7.3 0-13.2 5.9-13.2 13.1v110.1c0 7.3 5.9 13.2 13.2 13.2h.6l4.8 18.1c1.9 7 9.1 11.2 16.1 9.3l102.3-27.4h105.9c7.3 0 13.2-5.9 13.2-13.2v-110.1c-.1-7.2-6-13.1-13.3-13.1zm-20.2-22.6c4.4-1.2 8.8 1.4 10 5.8l4.5 16.8h-98.7zm-127.1 94.6c-1.2 1.4-2.6 2.6-4.2 3.5-.6.4-1.4.3-1.9-.1l-9-7.2c2.7-3.7 2.7-8.8 0-12.5l9-7.2c.5-.4 1.3-.5 1.9-.1 7.5 4.3 10.1 13.9 5.8 21.4-.4.7-1 1.4-1.6 2.2zm-14.8 10.1-4.2-10.6s.1 0 .1-.1l9.7 7.8c1.6 1.3 3.7 1.7 5.7 1.3-1.7 7-9.4 6.4-11.3 1.6zm14.9 54.3 1.5 5.5-13.5 3.6-2.5-9.1zm-39.7 16.6-28.8-16.5h28.1l19.8 11.4zm-50.9-96.9 54.8 54.8v18.6l-54.8-54.8zm0-26.8 34.5 34.5c1 8.4 4.9 11.1 6.6 13.3.4 5.4 1.8 10.2 6.6 12.6 2.2 1.1 4.7 1.4 7.1.9v13.4l-54.8-54.9zm47.1 19.1c.6-.4 1.4-.4 2.1 0l9 7.2c-2.7 3.7-2.7 8.8 0 12.5l-9 7.2c-.6.5-1.5.5-2.1 0-7.4-4.4-9.8-14.1-5.4-21.5 1.3-2.2 3.2-4.1 5.4-5.4zm25.7 95.3-12.6-7.2h10.7zm-20.5-64.5 9.7-7.8c.1 0 .1.1.2.1l-4.2 10.6c-1.9 4.7-9.6 5.6-11.3-1.6 1.9.4 4-.1 5.6-1.3zm17.9-21.8c2.5 1.9 3 5.5 1.1 7.9-.3.4-.7.8-1.1 1.1-2.5 1.9-6 1.4-7.9-1.1s-1.4-6 1.1-7.9c2-1.6 4.8-1.6 6.8 0zm-70.2 24.4 49.7 49.7h-19.8l-29.9-29.9zm59.8 49.6v-43.5c1.2-1.1 2.1-2.5 2.8-4l4.2-10.6 4.2 10.6c.6 1.5 1.6 2.9 2.8 4v43.5zm14-80.9-2.2 1.8c-3-1.5-6.6-1.5-9.6 0l-2.2-1.8v-45.5h14zm-19-26-19.5-19.5h19.5zm-26.6-19.5 26.6 26.6v15l-2.5-2c-1.6-1.2-3.6-1.7-5.6-1.3l-38.3-38.3zm-25.1 1.7 39 39c-3.6 2.9-6.1 6.9-7.2 11.4l-34.9-34.9v-9.1c0-2.5 1.1-4.8 3.1-6.4zm-3.1 116.6v-14.6l22.8 22.8h-14.6c-4.5-.1-8.2-3.7-8.2-8.2zm28.4 35.7c-4.4 1.2-8.8-1.4-10-5.8l-4.2-15.5 29.8 17.1zm68.5-18.3-1.1-4.2h16.9zm149.1-17.4c0 4.5-3.7 8.2-8.2 8.2h-159v-40.9c2.4.5 5 .2 7.2-.9 4.8-2.4 6.1-7.2 6.5-12.6 8.4-7.7 8.9-20.8 1.2-29.2-.1-.1-.2-.2-.3-.3-1.4-1.4-2.9-2.6-4.6-3.5-2.4-1.4-5.4-1.2-7.6.5l-2.5 2v-41.6h159c4.5 0 8.2 3.7 8.2 8.2v110.1z"/><path d="m173.1 98.5c1.4 0 2.5-1.1 2.5-2.5v-11.8c0-1.4-1.1-2.5-2.5-2.5s-2.5 1.1-2.5 2.5v11.8c0 1.4 1.1 2.5 2.5 2.5z"/><path d="m160.2 100.4c.7 1.2 2.2 1.6 3.4.9s1.6-2.2.9-3.4l-5.9-10.3c-.7-1.2-2.2-1.6-3.4-.9s-1.6 2.2-.9 3.4z"/><path d="m182.7 100.9c1.2.7 2.7.3 3.4-.9l5.9-10.3c.7-1.2.3-2.7-.9-3.4s-2.7-.3-3.4.9l-5.9 10.3c-.7 1.1-.3 2.7.9 3.4z"/><path d="m194.1 157.5h-42c-1.4 0-2.5 1.1-2.5 2.5s1.1 2.5 2.5 2.5h42c1.4 0 2.5-1.1 2.5-2.5s-1.1-2.5-2.5-2.5z"/><path d="m183.8 167.8h-21.3c-1.4 0-2.5 1.1-2.5 2.5s1.1 2.5 2.5 2.5h21.3c1.4 0 2.5-1.1 2.5-2.5s-1.1-2.5-2.5-2.5z"/></g></g></svg>