<svg id="solid" enable-background="new 0 0 24 24" height="512" viewBox="0 0 24 24" width="512" xmlns="http://www.w3.org/2000/svg"><path d="m12 1c-6.065 0-11 4.935-11 11s4.935 11 11 11 11-4.935 11-11-4.935-11-11-11zm3.25 8.5c.414 0 .75.336.75.75s-.336.75-.75.75h-1.172c-.407 1.248-1.538 2.173-2.903 2.246l3.498 2.385c.342.233.43.7.197 1.042-.145.212-.381.327-.621.327-.146 0-.292-.042-.422-.13l-5.5-3.75c-.271-.186-.391-.526-.294-.841s.388-.529.717-.529h2.25c.593 0 1.116-.298 1.432-.75h-3.682c-.414 0-.75-.336-.75-.75s.336-.75.75-.75h3.918c-.216-.72-.878-1.25-1.668-1.25h-2.25c-.414 0-.75-.336-.75-.75s.336-.75.75-.75h2.25 4.25c.414 0 .75.336.75.75s-.336.75-.75.75h-1.52c.239.372.398.796.469 1.25z"/></svg>