<svg height="512" viewBox="0 0 512 512" width="512" xmlns="http://www.w3.org/2000/svg"><g id="Flat"><g><g><path d="m192 192h-72v-8l29.031-43.547a10 10 0 0 1 8.321-4.453h34.648z" fill="#fa5d3f"/><path d="m192 320v-48h-148a20 20 0 0 0 -20 20v98a10 10 0 0 0 10 10h444a10 10 0 0 0 10-10v-70z" fill="#fa5d3f"/><path d="m192 280h-152v-8l55.015-75.645a30 30 0 0 1 24.262-12.355h72.723z" fill="#feece8"/><path d="m194 104h284a10 10 0 0 1 10 10v214a0 0 0 0 1 0 0h-304a0 0 0 0 1 0 0v-214a10 10 0 0 1 10-10z" fill="#fac850"/><circle cx="104" cy="416" fill="#4d4d4d" r="48"/><circle cx="408" cy="416" fill="#4d4d4d" r="48"/><path d="m128 296h32v16h-32z" fill="#fffefd"/><path d="m44 336h-20v-44a20 20 0 0 1 20-20h20v44a20 20 0 0 1 -20 20z" fill="#fac850"/><g><path d="m318.724 283.155a122.975 122.975 0 0 1 -48.531-77.107l-5.993-38.048 71.9-32.06 71.9 32.06-6.055 38.365a122.935 122.935 0 0 1 -49.164 77.558l-16.617 12.077z" fill="#9fdc6e"/><path d="m328.009 240a7.975 7.975 0 0 1 -5.656-2.344l-24-24 11.313-11.313 18.343 18.343 42.344-42.343 11.313 11.313-48 48a7.975 7.975 0 0 1 -5.657 2.344z" fill="#fbfef9"/></g><g fill="#fffaf6"><path d="m208 128h16v16h-16z"/><path d="m208 288h16v16h-16z"/><path d="m448 128h16v16h-16z"/><path d="m448 288h16v16h-16z"/></g><circle cx="104" cy="416" fill="#fefefe" r="16"/><circle cx="408" cy="416" fill="#fefefe" r="16"/></g><g fill="#b8b8b8"><g><path d="m16 128h64v16h-64z"/><path d="m96 128h16v16h-16z"/></g><g><path d="m88 48h128v16h-128z"/><path d="m232 48h16v16h-16z"/></g><g><path d="m304 64h128v16h-128z"/><path d="m448 64h16v16h-16z"/></g></g></g><g fill="#b8b8b8"><path d="m168 440h144v16h-144z"/><path d="m328 440h16v16h-16z"/></g></g></svg>