<svg height="512pt" viewBox="0 0 512 512" width="512pt" xmlns="http://www.w3.org/2000/svg" xmlns:xlink="http://www.w3.org/1999/xlink"><linearGradient id="a" gradientUnits="userSpaceOnUse" x1="0" x2="512" y1="256" y2="256"><stop offset="0" stop-color="#00f38d"/><stop offset="1" stop-color="#009eff"/></linearGradient><path d="m512 256c0 141.386719-114.613281 256-256 256s-256-114.613281-256-256 114.613281-256 256-256 256 114.613281 256 256zm0 0" fill="url(#a)"/><g fill="#fff"><path d="m353.160156 85.480469h-158.8125c-22.808594 0-41.359375 18.554687-41.359375 41.359375v54.539062h30v-54.539062c0-6.265625 5.09375-11.359375 11.359375-11.359375h158.8125c6.265625 0 11.359375 5.097656 11.359375 11.359375v258.320312c0 6.265625-5.097656 11.359375-11.359375 11.359375h-158.8125c-6.265625 0-11.359375-5.097656-11.359375-11.359375v-54.539062h-30v54.539062c0 22.804688 18.550781 41.359375 41.359375 41.359375h158.8125c22.804688 0 41.359375-18.554687 41.359375-41.359375v-258.320312c0-22.804688-18.554687-41.359375-41.359375-41.359375zm0 0"/><path d="m192.902344 299.492188 21.214844 21.214843 64.703124-64.707031-64.703124-64.707031-21.214844 21.214843 28.492187 28.492188h-167.914062v30h167.914062zm0 0"/></g></svg>