<?xml version="1.0"?>
<svg xmlns="http://www.w3.org/2000/svg" xmlns:xlink="http://www.w3.org/1999/xlink" xmlns:svgjs="http://svgjs.com/svgjs" version="1.1" width="512" height="512" x="0" y="0" viewBox="0 0 512.00291 512" style="enable-background:new 0 0 512 512" xml:space="preserve" class=""><g><path xmlns="http://www.w3.org/2000/svg" d="m484.992188 256c0 126.46875-102.523438 228.992188-228.992188 228.992188s-228.992188-102.523438-228.992188-228.992188 102.523438-228.992188 228.992188-228.992188 228.992188 102.523438 228.992188 228.992188zm0 0" fill="#b665c2" data-original="#b665c2" style="" class=""/><path xmlns="http://www.w3.org/2000/svg" d="m256 41.007812c124.125 0 225.175781 98.765626 228.875 221.992188.070312-2.324219.117188-4.65625.117188-7 0-126.46875-102.523438-228.992188-228.992188-228.992188s-228.992188 102.523438-228.992188 228.992188c0 2.34375.046876 4.675781.117188 7 3.699219-123.230469 104.75-221.992188 228.875-221.992188zm0 0" fill="#d476e2" data-original="#d476e2" style="" class=""/><path xmlns="http://www.w3.org/2000/svg" d="m256 470.992188c-124.125 0-225.175781-98.761719-228.875-221.992188-.070312 2.328125-.117188 4.660156-.117188 7 0 126.472656 102.523438 228.992188 228.992188 228.992188s228.992188-102.519532 228.992188-228.992188c0-2.339844-.046876-4.671875-.117188-7-3.699219 123.230469-104.75 221.992188-228.875 221.992188zm0 0" fill="#9b56a6" data-original="#9b56a6" style="" class=""/><path xmlns="http://www.w3.org/2000/svg" d="m256 68.398438 27.207031-19.0625 21.347657 25.453124 31.214843-11.371093 14.03125 30.113281 33.09375-2.902344 5.761719 32.714844 32.71875 5.761719-2.90625 33.09375 30.113281 14.03125-11.371093 31.214843 25.457031 21.347657-19.0625 27.207031 19.0625 27.210938-25.457031 21.347656 11.371093 31.210937-30.113281 14.035157 2.90625 33.09375-32.71875 5.757812-5.761719 32.71875-33.09375-2.902344-14.03125 30.109375-31.214843-11.367187-21.347657 25.453125-27.207031-19.0625-27.207031 19.0625-21.347657-25.453125-31.214843 11.367187-14.03125-30.109375-33.09375 2.902344-5.761719-32.71875-32.71875-5.757812 2.90625-33.09375-30.113281-14.035157 11.371093-31.210937-25.453124-21.347656 19.058593-27.210938-19.058593-27.207031 25.453124-21.347657-11.371093-31.214843 30.113281-14.03125-2.90625-33.09375 32.71875-5.761719 5.761719-32.714844 33.09375 2.902344 14.03125-30.113281 31.214843 11.371093 21.347657-25.453124zm0 0" fill="#d476e2" data-original="#d476e2" style="" class=""/><path xmlns="http://www.w3.org/2000/svg" d="m437 256c0 99.964844-81.039062 181-181 181s-180.996094-81.035156-180.996094-181c0-99.960938 81.035156-180.996094 180.996094-180.996094s181 81.035156 181 180.996094zm0 0" fill="#b665c2" data-original="#b665c2" style="" class=""/><path xmlns="http://www.w3.org/2000/svg" d="m487.410156 259.578125c-.898437-2.300781-.898437-4.851563 0-7.152344l23.910156-61.390625c2.515626-6.457031-2.246093-13.425781-9.179687-13.425781h-165.691406l14.777343-82.382813c.691407-3.839843-3.945312-6.308593-6.746093-3.589843l-42.507813 41.222656-42.507812-72.390625c-1.550782-2.644531-5.375-2.644531-6.925782 0l-42.507812 72.390625-42.507812-41.226563c-2.800782-2.714843-7.4375-.246093-6.75 3.59375l14.78125 82.382813h-165.695313c-6.929687 0-11.691406 6.964844-9.179687 13.425781l23.914062 61.390625c.894531 2.300781.894531 4.851563 0 7.148438l-23.910156 61.394531c-2.515625 6.457031 2.246094 13.425781 9.179687 13.425781h492.277344c6.933594 0 11.695313-6.96875 9.183594-13.425781zm0 0" fill="#ff8354" data-original="#ff8354" style="" class=""/><path xmlns="http://www.w3.org/2000/svg" d="m333.9375 191.609375h168.203125c3.121094 0 5.792969 1.417969 7.566406 3.558594l1.613281-4.132813c2.515626-6.460937-2.25-13.425781-9.183593-13.425781h-165.691407zm0 0" fill="#ffac8c" data-original="#ffac8c" style="" class=""/><path xmlns="http://www.w3.org/2000/svg" d="m2.292969 195.167969c1.777343-2.140625 4.449219-3.558594 7.566406-3.558594h168.203125l-2.511719-14h-165.691406c-6.929687 0-11.691406 6.964844-9.179687 13.425781zm0 0" fill="#ffac8c" data-original="#ffac8c" style="" class=""/><path xmlns="http://www.w3.org/2000/svg" d="m163.210938 108.8125c1.363281-.566406 3.027343-.425781 4.3125.820312l42.507812 41.226563 42.507812-72.390625c1.550782-2.644531 5.375-2.644531 6.925782 0l42.507812 72.390625 42.507813-41.226563c1.285156-1.242187 2.945312-1.386718 4.3125-.820312l2.4375-13.585938c.042969-.242187.066406-.476562.066406-.703124.007813-.457032-.0625-.886719-.195313-1.289063-.527343-1.59375-2.050781-2.667969-3.675781-2.746094-.8125-.035156-1.652343.175781-2.402343.695313-.1875.128906-.367188.28125-.542969.449218l-42.507813 41.226563-42.507812-72.390625c-.195313-.332031-.425782-.621094-.679688-.871094-.257812-.246094-.539062-.453125-.839844-.617187-1.203124-.660157-2.6875-.660157-3.890624 0-.296876.164062-.582032.371093-.839844.617187-.253906.25-.484375.539063-.679688.871094l-42.507812 72.390625-42.503906-41.226563c-.175782-.167968-.359376-.320312-.546876-.449218-.75-.519532-1.585937-.730469-2.398437-.695313-1.625.078125-3.148437 1.152344-3.679687 2.746094-.128907.398437-.199219.832031-.195313 1.289063.003906.226562.027344.460937.070313.703124zm0 0" fill="#ffac8c" data-original="#ffac8c" style="" class=""/><path xmlns="http://www.w3.org/2000/svg" d="m509.707031 316.832031c-1.773437 2.144531-4.445312 3.5625-7.566406 3.5625h-492.28125c-3.117187 0-5.792969-1.417969-7.566406-3.5625l-1.609375 4.136719c-2.515625 6.457031 2.246094 13.425781 9.179687 13.425781h492.277344c6.933594 0 11.695313-6.96875 9.183594-13.425781zm0 0" fill="#e0734a" data-original="#e0734a" style="" class=""/><g xmlns="http://www.w3.org/2000/svg" fill="#ffefe4"><path d="m53.109375 282.941406v-54.859375c0-3.621093 2.933594-6.554687 6.554687-6.554687h17.179688c3.203125 0 6.199219.515625 9 1.550781 2.789062 1.035156 5.226562 2.496094 7.296875 4.378906 2.070313 1.882813 3.703125 4.128907 4.898437 6.734375 1.195313 2.605469 1.792969 5.480469 1.792969 8.621094 0 3.199219-.597656 6.105469-1.792969 8.710938-1.195312 2.605468-2.828124 4.851562-4.898437 6.734374-2.070313 1.886719-4.507813 3.34375-7.296875 4.378907-2.800781 1.035156-5.796875 1.558593-9 1.558593h-11.015625v18.742188c0 3.328125-2.699219 6.027344-6.03125 6.027344h-.664063c-3.328124.003906-6.023437-2.695313-6.023437-6.023438zm23.921875-30.800781c3.328125 0 5.84375-.941406 7.539062-2.824219 1.691407-1.886718 2.542969-4.054687 2.542969-6.5 0-1.191406-.207031-2.359375-.613281-3.488281-.414062-1.125-1.035156-2.121094-1.886719-2.964844-.851562-.851562-1.902343-1.523437-3.160156-2.027343-1.257813-.5-2.726563-.753907-4.421875-.753907h-11.207031v18.558594zm0 0" fill="#ffefe4" data-original="#ffefe4" style="" class=""/><path d="m108.867188 228.082031c0-3.617187 2.933593-6.554687 6.558593-6.554687h18.027344c3.386719 0 6.46875.53125 9.230469 1.597656 2.765625 1.070312 5.136718 2.542969 7.113281 4.425781 1.976563 1.886719 3.496094 4.132813 4.566406 6.738281 1.066407 2.605469 1.601563 5.445313 1.601563 8.523438 0 2.261719-.375 4.382812-1.132813 6.359375-.75 1.976563-1.785156 3.769531-3.105469 5.367187-1.316406 1.601563-2.859374 3.015626-4.613281 4.238282-1.761719 1.226562-3.617187 2.183594-5.558593 2.875l-.097657.660156 11.53125 16.507812c2.878907 4.125.148438 9.816407-4.875 10.148438-1.878906.121094-3.683593-.753906-4.753906-2.304688l-15.839844-23.035156h-5.933593v19.3125c0 3.328125-2.699219 6.027344-6.027344 6.027344h-.664063c-3.328125 0-6.027343-2.699219-6.027343-6.027344zm24.492187 23.871094c2.882813 0 5.257813-.882813 7.105469-2.636719 1.855468-1.761718 2.78125-3.992187 2.78125-6.6875 0-1.195312-.207032-2.359375-.613282-3.488281-.40625-1.132813-1.019531-2.136719-1.839843-3.011719-.8125-.878906-1.832031-1.585937-3.058594-2.121094-1.226563-.53125-2.621094-.800781-4.195313-.800781h-11.957031v18.746094zm0 0" fill="#ffefe4" data-original="#ffefe4" style="" class=""/><path d="m179.988281 233.582031v15.636719h21.003907c3.328124 0 6.027343 2.699219 6.027343 6.027344v.003906c0 3.328125-2.699219 6.03125-6.027343 6.03125h-21.003907v15.632812h24.015625c3.328125 0 6.027344 2.699219 6.027344 6.027344v.003906c0 3.328126-2.699219 6.027344-6.027344 6.027344h-30.175781c-3.621094 0-6.558594-2.933594-6.558594-6.554687v-54.332031c0-3.621094 2.933594-6.554688 6.558594-6.554688h30.175781c3.328125 0 6.027344 2.695312 6.027344 6.027344 0 3.328125-2.699219 6.027344-6.027344 6.027344h-24.015625zm0 0" fill="#ffefe4" data-original="#ffefe4" style="" class=""/><path d="m228.269531 221.527344h2.1875c2.339844 0 4.503907 1.25 5.675781 3.277344l18.734376 32.421874h.753906l18.734375-32.421874c1.171875-2.027344 3.335937-3.277344 5.675781-3.277344h2.289062c3.617188 0 6.554688 2.933594 6.554688 6.554687v54.863281c0 3.324219-2.699219 6.027344-6.027344 6.027344h-.574218c-3.328126 0-6.027344-2.699218-6.027344-6.027344v-27.222656l.757812-11.304687h-.757812l-15.253906 26.910156c-1.164063 2.054687-3.34375 3.324219-5.703126 3.324219-2.355468 0-4.527343-1.261719-5.695312-3.308594l-15.351562-26.925781h-.753907l.753907 11.304687v27.222656c0 3.324219-2.699219 6.027344-6.03125 6.027344h-.46875c-3.328126 0-6.03125-2.699218-6.03125-6.027344v-54.863281c0-3.621093 2.933593-6.554687 6.558593-6.554687zm0 0" fill="#ffefe4" data-original="#ffefe4" style="" class=""/><path d="m308.464844 221.527344h.664062c3.328125 0 6.03125 2.699218 6.03125 6.027344v55.390624c0 3.324219-2.699218 6.027344-6.03125 6.027344h-.664062c-3.328125 0-6.027344-2.699218-6.027344-6.027344v-55.390624c0-3.328126 2.699219-6.027344 6.027344-6.027344zm0 0" fill="#ffefe4" data-original="#ffefe4" style="" class=""/><path d="m353.390625 290.476562c-3.953125 0-7.546875-.644531-10.785156-1.933593-3.234375-1.285157-5.980469-3.152344-8.238281-5.601563-2.261719-2.453125-4.015626-5.417968-5.273438-8.902344-1.257812-3.488281-1.886719-7.457031-1.886719-11.914062v-34.570312c0-3.328126 2.699219-6.027344 6.027344-6.027344h.664063c3.328124 0 6.027343 2.695312 6.027343 6.027344v35.320312c0 2.261719.285157 4.335938.851563 6.214844.558594 1.886718 1.410156 3.519531 2.535156 4.898437 1.136719 1.386719 2.546875 2.46875 4.242188 3.25 1.703124.789063 3.640624 1.175781 5.839843 1.175781 2.265625 0 4.242188-.386718 5.9375-1.175781 1.699219-.78125 3.109375-1.863281 4.238281-3.25 1.132813-1.378906 1.976563-3.011719 2.542969-4.898437.570313-1.878906.851563-3.953125.851563-6.214844v-35.320312c0-3.328126 2.699218-6.027344 6.027344-6.027344h.664062c3.328125 0 6.027344 2.695312 6.027344 6.027344v34.570312c0 4.207031-.613282 8.050781-1.839844 11.535156-1.226562 3.488282-2.980469 6.46875-5.273438 8.949219-2.292968 2.484375-5.058593 4.410156-8.292968 5.796875-3.242188 1.378906-6.867188 2.070312-10.886719 2.070312zm0 0" fill="#ffefe4" data-original="#ffefe4" style="" class=""/><path d="m398.289062 221.527344h2.1875c2.34375 0 4.503907 1.25 5.679688 3.277344l18.734375 32.421874h.75l18.738281-32.421874c1.171875-2.027344 3.332032-3.277344 5.675782-3.277344h2.285156c3.621094 0 6.554687 2.933594 6.554687 6.554687v54.863281c0 3.324219-2.695312 6.027344-6.027343 6.027344h-.570313c-3.328125 0-6.027344-2.699218-6.027344-6.027344v-27.222656l.757813-11.304687h-.757813l-15.257812 26.910156c-1.164063 2.054687-3.339844 3.324219-5.703125 3.324219-2.351563 0-4.527344-1.261719-5.691406-3.308594l-15.355469-26.925781h-.75l.75 11.304687v27.222656c0 3.324219-2.699219 6.027344-6.027344 6.027344h-.472656c-3.328125 0-6.027344-2.699218-6.027344-6.027344v-54.863281c0-3.621093 2.9375-6.554687 6.554687-6.554687zm0 0" fill="#ffefe4" data-original="#ffefe4" style="" class=""/></g><path xmlns="http://www.w3.org/2000/svg" d="m255.324219 406.523438 19.566406 10.289062c2.28125 1.199219 4.949219-.738281 4.515625-3.28125l-3.738281-21.789062 15.832031-15.433594c1.84375-1.800782.828125-4.933594-1.726562-5.308594l-21.878907-3.179688-9.78125-19.824218c-1.144531-2.3125-4.441406-2.3125-5.582031 0l-9.78125 19.824218-21.878906 3.179688c-2.550782.371094-3.574219 3.507812-1.726563 5.308594l15.832031 15.433594-3.734374 21.789062c-.4375 2.542969 2.230468 4.480469 4.511718 3.28125zm0 0" fill="#ff8354" data-original="#ff8354" style="" class=""/><path xmlns="http://www.w3.org/2000/svg" d="m179.265625 379.859375 10.910156 5.734375c1.273438.671875 2.761719-.410156 2.519531-1.828125l-2.085937-12.144531 8.828125-8.605469c1.027344-1.003906.460938-2.753906-.964844-2.960937l-12.195312-1.769532-5.453125-11.054687c-.636719-1.289063-2.476563-1.289063-3.113281 0l-5.453126 11.054687-12.199218 1.769532c-1.421875.207031-1.992188 1.957031-.960938 2.960937l8.824219 8.605469-2.082031 12.144531c-.246094 1.417969 1.242187 2.5 2.515625 1.828125zm0 0" fill="#ff8354" data-original="#ff8354" style="" class=""/><path xmlns="http://www.w3.org/2000/svg" d="m331.378906 379.859375 10.910156 5.734375c1.269532.671875 2.757813-.410156 2.515626-1.828125l-2.082032-12.144531 8.824219-8.605469c1.03125-1.003906.464844-2.753906-.960937-2.960937l-12.199219-1.769532-5.453125-11.054687c-.636719-1.289063-2.472656-1.289063-3.109375 0l-5.457031 11.054687-12.195313 1.769532c-1.421875.207031-1.992187 1.957031-.964844 2.960937l8.828125 8.605469-2.085937 12.144531c-.242188 1.417969 1.246093 2.5 2.519531 1.828125zm0 0" fill="#ff8354" data-original="#ff8354" style="" class=""/><path xmlns="http://www.w3.org/2000/svg" d="m74.585938 70.328125 29.980468-9.519531c6.089844-1.929688 6.089844-10.546875 0-12.480469l-29.980468-9.519531c-2.03125-.644532-3.617188-2.230469-4.261719-4.257813l-9.515625-29.984375c-1.933594-6.085937-10.546875-6.085937-12.480469 0l-9.519531 29.984375c-.644532 2.027344-2.230469 3.613281-4.261719 4.257813l-29.980469 9.519531c-6.089844 1.929687-6.089844 10.546875 0 12.480469l29.980469 9.519531c2.03125.644531 3.617187 2.230469 4.261719 4.257813l9.519531 29.984374c1.929687 6.085938 10.546875 6.085938 12.480469 0l9.519531-29.984374c.640625-2.027344 2.230469-3.617188 4.257813-4.257813zm0 0" fill="#69ebfc" data-original="#69ebfc" style="" class=""/><path xmlns="http://www.w3.org/2000/svg" d="m445.121094 482.878906 22.5-7.144531c4.570312-1.449219 4.570312-7.917969 0-9.367187l-22.5-7.144532c-1.523438-.484375-2.714844-1.675781-3.195313-3.195312l-7.144531-22.5c-1.449219-4.570313-7.917969-4.570313-9.367188 0l-7.144531 22.5c-.484375 1.519531-1.675781 2.710937-3.195312 3.195312l-22.5 7.144532c-4.570313 1.449218-4.570313 7.914062 0 9.367187l22.5 7.144531c1.519531.484375 2.710937 1.675782 3.195312 3.195313l7.144531 22.5c1.449219 4.570312 7.914063 4.570312 9.367188 0l7.144531-22.5c.480469-1.523438 1.671875-2.714844 3.195313-3.195313zm0 0" fill="#69ebfc" data-original="#69ebfc" style="" class=""/></g></svg>
