<svg id="Capa_1" enable-background="new 0 0 512 512" height="512" viewBox="0 0 512 512" width="512" xmlns="http://www.w3.org/2000/svg"><g><g><g><path d="m11.081 504.388s140.161-188.506 386.744-209.261l-137.684-206.533s-249.06 104.982-249.06 415.794z" fill="#23f1a8"/><g><path d="m166.033 176.302-12.27 20.693 10.088 21.84c1.877 4.039-1.705 8.474-6.049 7.5l-23.484-5.267-17.648 16.339c-3.268 3.034-8.586.995-9.002-3.44l-1.827-19.556c12.909-16.593 26.285-31.339 39.509-44.35l15.416-1.837c4.425-.528 7.54 4.242 5.267 8.078z" fill="#26d192"/></g><path d="m260.141 88.598s-32.892 13.863-74.765 46.43l28.426 44.634-35.358 83.381c-4.608 10.879-3.481 23.251 3.034 33.085 2.121 3.204 4.705 5.987 7.631 8.285 7.741 6.081 7.018 18.075-1.504 23.002-.104.06-.209.12-.314.18-1.074.553-2.139 1.109-3.204 1.666-.058.027-.109.055-.167.083l.003.003c-88.603 46.367-147.191 106.515-171.368 134.263-.964 13.183-1.472 26.772-1.472 40.777 0 0 140.163-188.511 386.745-209.265z" fill="#26d192"/><path d="m136.608 327.972c-2.124 0-4.236-.884-5.742-2.611-2.762-3.169-2.431-7.977.739-10.739 38.513-33.556 79.169-43.627 80.881-44.04 4.088-.985 8.198 1.531 9.182 5.617.984 4.084-1.527 8.192-5.609 9.18-.385.094-38.878 9.722-74.455 40.719-1.441 1.258-3.223 1.874-4.996 1.874z" fill="#fff6c0"/></g><g><g><g><path d="m408.392 321.585c-.326 5.203-4.401 8.711-8.898 9.118l-34.377-81.958-37.15-34.486-11.382 48.348-2.764-2.402-100.605 25.993c-5.891 1.523-11.179-2.545-12.072-7.829l65.85-53.796 20.459-47.736-46.63 4.083 1.541-3.632-55.803-87.641c-2.77-4.354-1.587-9.522 1.72-12.512l75.629 45.256 49.226 5.476-17.106-44.428 3.112.273 66.117-80.159c3.383-4.104 8.891-4.478 12.784-2.011l-20.223 85.903 10.747 48.218 36.202-30.834.918 3.965 96.668 38.104c4.916 1.943 6.984 7.017 5.891 11.461l-88.778 7.091-43.551 25.568 41.686 25.147-2.845 1.707z" fill="#fde734"/><path d="m319.597 235.669-87.314 22.557 35.206-83.024-48.435-76.071 89.841 7.827 57.38-69.571z" fill="#f3d730"/><path d="m502.355 146.898-96.666-38.107-23.407-101.229c-.911-3.939-3.881-6.504-7.267-7.301l-5.829 24.761 22.219 96.079 91.745 36.167-84.512 50.822-6.045 98.431-74.451-64.669-4.321 18.353 78.443 68.14c6.097 5.304 15.633 1.307 16.126-6.76l6.369-103.712 89.043-53.548c6.927-4.165 6.073-14.463-1.447-17.427z" fill="#f3d730"/><g><g><path d="m503.802 164.325-89.043 53.548-37.674-22.855 55.82-33.569 75.592-6.287c.289 3.463-1.228 7.078-4.695 9.163z" fill="#fca62f"/><path d="m398.638 208.09-.002.007 16.122 9.776 89.043-53.548c3.468-2.085 4.984-5.7 4.695-9.163l-25.346 2.106z" fill="#fb9927"/><path d="m402.429 329.976c-3.204 1.345-7.113 1.021-10.165-1.632l-78.443-68.14 10.098-42.893 49.172 42.716z" fill="#fca62f"/><path d="m402.429 329.976c-3.204 1.345-7.113 1.021-10.165-1.632l-78.443-68.14 4.321-18.353 74.445 64.668.007.002z" fill="#fb9927"/><path d="m316.186 124.348-64.887-5.652-64.849-39.348c1.804-2.971 5.157-5.007 9.183-4.656l103.514 9.018z" fill="#fca62f"/><path d="m316.187 124.346-64.887-5.652-32.236-19.558 89.83 7.82z" fill="#fb9927"/><path d="m405.69 108.791-33.379 28.77-14.677-63.465 17.382-73.834c3.386.797 6.356 3.362 7.267 7.301z" fill="#fca62f"/><path d="m405.69 108.791-14.284 12.31-22.219-96.079 5.829-24.761c3.386.797 6.356 3.362 7.267 7.301z" fill="#fb9927"/></g></g><path d="m286.282 173.639-34.984-54.944 64.891 5.653 41.444-50.25 14.675 63.462 60.597 23.888-55.82 33.568-3.993 65.013-49.174-42.715-63.065 16.292z" fill="#27e19d"/><path d="m377.084 195.018-3.994 65.01-49.172-42.716-63.064 16.294 13.32-31.407c70.902 7.082 98.886-27.732 109.754-60.059l48.976 19.308z" fill="#26d192"/></g></g><path d="m286.281 173.642-25.425 59.958-.002.007-57.461 49.515c-2.274-2.634-3.166-6.452-1.591-10.169l40.566-95.662z" fill="#fca62f"/><path d="m232.28 258.223.007.002 28.568-24.621.002-.006 25.425-59.958-18.792 1.564z" fill="#fb9927"/></g></g><g><g><path d="m299.627 397.696-12.922-20.295c-2.393-3.759.562-8.63 5.001-8.243l23.968 2.088 15.308-18.561c2.835-3.438 8.381-2.132 9.385 2.209l5.421 23.44 22.383 8.823c4.145 1.634 4.617 7.312.799 9.608l-20.618 12.399-1.475 24.014c-.273 4.447-5.527 6.651-8.891 3.729l-18.163-15.777-23.294 6.018c-4.314 1.115-8.034-3.202-6.294-7.304z" fill="#fca62f"/></g><g><path d="m368.965 396.771-20.612 12.391-1.472 24.022c-.274 4.445-5.531 6.647-8.9 3.724l-18.156-15.781-23.301 6.018c-4.313 1.116-8.028-3.197-6.292-7.297l5.947-14.025c21.414 1.177 42.249-8.241 55.513-25.158l16.481 6.495c4.141 1.634 4.618 7.308.792 9.611z" fill="#fb9927"/></g></g><g><g><path d="m111.503 188.641-21.003-11.736c-3.89-2.173-3.599-7.864.492-9.629l22.09-9.533 4.67-23.601c.865-4.371 6.367-5.853 9.31-2.507l15.892 18.063 23.89-2.851c4.424-.528 7.534 4.246 5.262 8.079l-12.268 20.696 10.094 21.839c1.869 4.045-1.711 8.477-6.058 7.501l-23.474-5.272-17.651 16.349c-3.269 3.028-8.591.993-9.006-3.444z" fill="#fde734"/></g><g><path d="m172.102 154.929-12.26 20.693 10.088 21.84c1.867 4.039-1.705 8.474-6.059 7.5l-23.474-5.267-17.649 16.339c-3.268 3.034-8.596.995-9.002-3.44l-1.715-18.308c18.247-8.403 32.161-24.935 36.769-45.283l18.044-2.152c4.426-.528 7.531 4.242 5.258 8.078z" fill="#f3d730"/></g></g><g><g><path d="m100.557 44.587-10.459-21.667c-1.937-4.013 1.568-8.505 5.931-7.601l23.56 4.878 17.374-16.642c3.218-3.082 8.573-1.137 9.062 3.292l2.641 23.913 21.197 11.381c3.926 2.108 3.73 7.802-.331 9.636l-21.927 9.902-4.274 23.676c-.792 4.385-6.268 5.959-9.266 2.663l-16.193-17.794-23.838 3.252c-4.415.602-7.604-4.119-5.396-7.99z" fill="#fb9927"/></g><g><path d="m169.534 51.778-21.931 9.905-4.273 23.667c-.792 4.394-6.262 5.967-9.266 2.669l-16.197-17.791-23.829 3.248c-4.415.599-7.611-4.12-5.399-7.987l5.967-10.473c21.982 3.704 44.867-3.968 60.1-21.018l15.152 8.139c3.928 2.111 3.736 7.804-.324 9.641z" fill="#f98824"/></g></g><path d="m11.08 511.997c-1.04 0-2.088-.213-3.076-.65-2.755-1.219-4.534-3.947-4.534-6.959 0-125.23 19.435-227.187 35.739-290.667 17.713-68.966 35.209-107.751 35.944-109.368 1.742-3.826 6.257-5.513 10.081-3.775 3.825 1.741 5.515 6.253 3.776 10.078-.176.388-17.788 39.49-35.17 107.296-15.329 59.797-33.472 154.245-35.037 270.29 10.225-7.855 26.425-19.355 48.194-31.915 35.888-20.707 94.342-48.263 169.014-61.953 4.137-.756 8.102 1.979 8.859 6.114.758 4.135-1.979 8.101-6.114 8.859-72.314 13.258-128.943 39.899-163.715 59.914-37.748 21.728-58.628 40.566-58.834 40.754-1.431 1.301-3.267 1.982-5.127 1.982z" fill="#fca62f"/><path d="m11.091 512c-.401 0-.807-.032-1.216-.097-4.151-.666-6.975-4.571-6.309-8.721.278-1.731 7.062-43.003 29.583-95.524 20.843-48.608 59.671-116.126 126.283-161.744 3.468-2.375 8.206-1.489 10.581 1.979s1.489 8.206-1.979 10.581c-63.598 43.553-100.846 108.429-120.894 155.183-21.786 50.807-28.479 91.531-28.544 91.937-.6 3.741-3.833 6.406-7.505 6.406z" fill="#fde734"/></g></svg>